<?xml version="1.0" ?><svg id="dog" style="enable-background:new 0 0 300 300;" version="1.1" viewBox="0 0 300 300" xml:space="preserve" xmlns="http://www.w3.org/2000/svg" xmlns:xlink="http://www.w3.org/1999/xlink"><g><line style="fill-rule:evenodd;clip-rule:evenodd;fill:none;stroke:#000000;stroke-width:8;stroke-linecap:round;stroke-linejoin:round;stroke-miterlimit:10;" x1="118.245" x2="189.755" y1="54" y2="54"/><path d="   M226.776,123.97l-3.581,90.038C222.317,236.096,203.789,254,181.86,254h-55.72c-21.95,0-40.457-17.924-41.335-39.992l-3.582-90.069   " style="fill-rule:evenodd;clip-rule:evenodd;fill:none;stroke:#000000;stroke-width:8;stroke-linecap:round;stroke-linejoin:round;stroke-miterlimit:10;"/><path d="   M116,214c0,11.046,8.954,20,20,20c9.061,0,16.715-6.025,19.172-14.288" style="fill:none;stroke:#000000;stroke-width:8;stroke-linecap:round;stroke-linejoin:round;stroke-miterlimit:10;"/><path d="   M257.953,71.304C263.045,61.748,258.303,54,247.442,54H192l31.033,63.408c2.54,5.959,7.073,6.147,10.139,0.394L257.953,71.304z" style="fill-rule:evenodd;clip-rule:evenodd;fill:none;stroke:#000000;stroke-width:8;stroke-linecap:round;stroke-linejoin:round;stroke-miterlimit:10;"/><path d="   M156.826,219.708C159.283,227.973,166.938,234,176,234c11.046,0,20-8.954,20-20" style="fill:none;stroke:#000000;stroke-width:8;stroke-linecap:round;stroke-linejoin:round;stroke-miterlimit:10;"/><path d="   M50.047,71.304C44.955,61.748,49.697,54,60.558,54H116l-31.033,63.408c-2.54,5.959-7.073,6.147-10.139,0.394L50.047,71.304z" style="fill-rule:evenodd;clip-rule:evenodd;fill:none;stroke:#000000;stroke-width:8;stroke-linecap:round;stroke-linejoin:round;stroke-miterlimit:10;"/><path d="   M159.762,215.055c-2.078,3.922-5.444,3.93-7.525,0l-7.385-13.951c-2.078-3.922-0.225-7.104,4.15-7.104h13.995   c4.37,0,6.232,3.174,4.15,7.104L159.762,215.055z" style="fill-rule:evenodd;clip-rule:evenodd;fill:none;stroke:#000000;stroke-width:8;stroke-linecap:round;stroke-linejoin:round;stroke-miterlimit:10;"/><circle cx="120" cy="134" r="16" style="fill-rule:evenodd;clip-rule:evenodd;fill:none;stroke:#000000;stroke-width:8;stroke-linecap:round;stroke-linejoin:round;stroke-miterlimit:10;"/><circle cx="116" cy="138" r="8" style="fill-rule:evenodd;clip-rule:evenodd;"/><circle cx="188" cy="134" r="16" style="fill-rule:evenodd;clip-rule:evenodd;fill:none;stroke:#000000;stroke-width:8;stroke-linecap:round;stroke-linejoin:round;stroke-miterlimit:10;"/><circle cx="184" cy="138" r="8" style="fill-rule:evenodd;clip-rule:evenodd;"/></g><g/><g/><g/><g/><g/><g/><g/><g/><g/><g/><g/><g/><g/><g/><g/></svg>